%TF.GenerationSoftware,KiCad,Pcbnew,5.1.10-88a1d61d58~88~ubuntu18.04.1*%
%TF.CreationDate,2021-10-19T13:41:10-04:00*%
%TF.ProjectId,MFDkeyboard2withMountHoles3USEthisONE,4d46446b-6579-4626-9f61-726432776974,rev?*%
%TF.SameCoordinates,Original*%
%TF.FileFunction,Legend,Bot*%
%TF.FilePolarity,Positive*%
%FSLAX46Y46*%
G04 Gerber Fmt 4.6, Leading zero omitted, Abs format (unit mm)*
G04 Created by KiCad (PCBNEW 5.1.10-88a1d61d58~88~ubuntu18.04.1) date 2021-10-19 13:41:10*
%MOMM*%
%LPD*%
G01*
G04 APERTURE LIST*
%ADD10C,0.150000*%
G04 APERTURE END LIST*
D10*
X76519047Y-158556666D02*
X76995238Y-158556666D01*
X76995238Y-155336666D01*
X76280952Y-156410000D02*
X76042857Y-158556666D01*
X75804761Y-156410000D02*
X76042857Y-158556666D01*
X76138095Y-159323333D01*
X76185714Y-159476666D01*
X76280952Y-159630000D01*
X75566666Y-156410000D02*
X75185714Y-156410000D01*
X75423809Y-155336666D02*
X75423809Y-158096666D01*
X75376190Y-158403333D01*
X75280952Y-158556666D01*
X75185714Y-158556666D01*
X74995238Y-156410000D02*
X74614285Y-156410000D01*
X74852380Y-155336666D02*
X74852380Y-158096666D01*
X74804761Y-158403333D01*
X74709523Y-158556666D01*
X74614285Y-158556666D01*
X74138095Y-158556666D02*
X74233333Y-158403333D01*
X74280952Y-158096666D01*
X74280952Y-155336666D01*
X73376190Y-158403333D02*
X73471428Y-158556666D01*
X73661904Y-158556666D01*
X73757142Y-158403333D01*
X73804761Y-158096666D01*
X73804761Y-156870000D01*
X73757142Y-156563333D01*
X73661904Y-156410000D01*
X73471428Y-156410000D01*
X73376190Y-156563333D01*
X73328571Y-156870000D01*
X73328571Y-157176666D01*
X73804761Y-157483333D01*
X71566666Y-158556666D02*
X71900000Y-157023333D01*
X72138095Y-158556666D02*
X72138095Y-155336666D01*
X71757142Y-155336666D01*
X71661904Y-155490000D01*
X71614285Y-155643333D01*
X71566666Y-155950000D01*
X71566666Y-156410000D01*
X71614285Y-156716666D01*
X71661904Y-156870000D01*
X71757142Y-157023333D01*
X72138095Y-157023333D01*
X70757142Y-158403333D02*
X70852380Y-158556666D01*
X71042857Y-158556666D01*
X71138095Y-158403333D01*
X71185714Y-158096666D01*
X71185714Y-156870000D01*
X71138095Y-156563333D01*
X71042857Y-156410000D01*
X70852380Y-156410000D01*
X70757142Y-156563333D01*
X70709523Y-156870000D01*
X70709523Y-157176666D01*
X71185714Y-157483333D01*
X70328571Y-158403333D02*
X70233333Y-158556666D01*
X70042857Y-158556666D01*
X69947619Y-158403333D01*
X69900000Y-158096666D01*
X69900000Y-157943333D01*
X69947619Y-157636666D01*
X70042857Y-157483333D01*
X70185714Y-157483333D01*
X70280952Y-157330000D01*
X70328571Y-157023333D01*
X70328571Y-156870000D01*
X70280952Y-156563333D01*
X70185714Y-156410000D01*
X70042857Y-156410000D01*
X69947619Y-156563333D01*
X69090476Y-158403333D02*
X69185714Y-158556666D01*
X69376190Y-158556666D01*
X69471428Y-158403333D01*
X69519047Y-158096666D01*
X69519047Y-156870000D01*
X69471428Y-156563333D01*
X69376190Y-156410000D01*
X69185714Y-156410000D01*
X69090476Y-156563333D01*
X69042857Y-156870000D01*
X69042857Y-157176666D01*
X69519047Y-157483333D01*
X68185714Y-158556666D02*
X68185714Y-156870000D01*
X68233333Y-156563333D01*
X68328571Y-156410000D01*
X68519047Y-156410000D01*
X68614285Y-156563333D01*
X68185714Y-158403333D02*
X68280952Y-158556666D01*
X68519047Y-158556666D01*
X68614285Y-158403333D01*
X68661904Y-158096666D01*
X68661904Y-157790000D01*
X68614285Y-157483333D01*
X68519047Y-157330000D01*
X68280952Y-157330000D01*
X68185714Y-157176666D01*
X67709523Y-158556666D02*
X67709523Y-156410000D01*
X67709523Y-157023333D02*
X67661904Y-156716666D01*
X67614285Y-156563333D01*
X67519047Y-156410000D01*
X67423809Y-156410000D01*
X66661904Y-158403333D02*
X66757142Y-158556666D01*
X66947619Y-158556666D01*
X67042857Y-158403333D01*
X67090476Y-158250000D01*
X67138095Y-157943333D01*
X67138095Y-157023333D01*
X67090476Y-156716666D01*
X67042857Y-156563333D01*
X66947619Y-156410000D01*
X66757142Y-156410000D01*
X66661904Y-156563333D01*
X66233333Y-158556666D02*
X66233333Y-155336666D01*
X65804761Y-158556666D02*
X65804761Y-156870000D01*
X65852380Y-156563333D01*
X65947619Y-156410000D01*
X66090476Y-156410000D01*
X66185714Y-156563333D01*
X66233333Y-156716666D01*
M02*
