M48
; DRILL file {KiCad 5.1.10-88a1d61d58~88~ubuntu18.04.1} date Thu Nov 18 05:13:33 2021
; FORMAT={-:-/ absolute / inch / decimal}
; #@! TF.CreationDate,2021-11-18T05:13:33-05:00
; #@! TF.GenerationSoftware,Kicad,Pcbnew,5.1.10-88a1d61d58~88~ubuntu18.04.1
; #@! TF.FileFunction,Plated,1,2,PTH
FMAT,2
INCH
T1C0.0157
T2C0.0315
T3C0.0433
T4C0.1260
%
G90
G05
T1
X1.374Y-2.3228
X1.4094Y-2.9134
X1.4409Y-3.5039
X1.4754Y-4.0945
X2.5197Y-5.8819
X3.1102Y-5.8268
X3.1102Y-1.3031
X3.7008Y-1.2717
X4.2913Y-5.8268
X4.2923Y-1.2392
X4.8819Y-1.2087
X5.9291Y-2.9528
X5.9646Y-3.5433
X6.0Y-4.1339
X6.0354Y-4.7244
T2
X2.7717Y-6.9055
X2.9764Y-6.9055
X4.5433Y-6.5039
X4.5433Y-6.7087
X4.689Y-6.5079
X4.689Y-6.7126
X4.8386Y-6.5079
X4.8386Y-6.7126
T3
X1.5827Y-2.3228
X1.5827Y-2.9134
X1.5827Y-3.5039
X1.5827Y-4.0945
X1.5827Y-4.685
X1.8031Y-2.3228
X1.8031Y-2.9134
X1.8031Y-3.5039
X1.8031Y-4.0945
X1.8031Y-4.685
X2.5197Y-1.4252
X2.5197Y-1.6457
X2.5197Y-5.4409
X2.5197Y-5.6614
X3.1102Y-1.4252
X3.1102Y-1.6457
X3.1102Y-5.4409
X3.1102Y-5.6614
X3.2807Y-6.1567
X3.2807Y-6.7567
X3.3807Y-6.1567
X3.3807Y-6.7567
X3.4807Y-6.1567
X3.4807Y-6.7567
X3.5807Y-6.1567
X3.5807Y-6.7567
X3.6807Y-6.1567
X3.6807Y-6.7567
X3.7008Y-1.4252
X3.7008Y-1.6457
X3.7008Y-5.4409
X3.7008Y-5.6614
X3.7807Y-6.1567
X3.7807Y-6.7567
X3.8807Y-6.1567
X3.8807Y-6.7567
X3.9807Y-6.1567
X3.9807Y-6.7567
X4.0807Y-6.1567
X4.0807Y-6.7567
X4.1807Y-6.1567
X4.1807Y-6.7567
X4.2807Y-6.1567
X4.2807Y-6.7567
X4.2913Y-1.4252
X4.2913Y-1.6457
X4.2913Y-5.4409
X4.2913Y-5.6614
X4.3807Y-6.1567
X4.3807Y-6.7567
X4.8819Y-1.4252
X4.8819Y-1.6457
X4.8819Y-5.4409
X4.8819Y-5.6614
X5.5984Y-2.3622
X5.5984Y-2.9528
X5.5984Y-3.5433
X5.5984Y-4.1339
X5.5984Y-4.7244
X5.8189Y-2.3622
X5.8189Y-2.9528
X5.8189Y-3.5433
X5.8189Y-4.1339
X5.8189Y-4.7244
T4
X1.6929Y-2.0079
X1.6929Y-5.1181
X2.3228Y-6.063
X5.1181Y-6.5354
X5.7087Y-2.0079
X5.7087Y-5.0787
T0
M30
