%TF.GenerationSoftware,KiCad,Pcbnew,5.1.12-84ad8e8a86~92~ubuntu18.04.1*%
%TF.CreationDate,2022-01-13T07:13:59-05:00*%
%TF.ProjectId,ThisOneHas3Dmodels90mmsqu,54686973-4f6e-4654-9861-7333446d6f64,rev?*%
%TF.SameCoordinates,Original*%
%TF.FileFunction,Soldermask,Top*%
%TF.FilePolarity,Negative*%
%FSLAX46Y46*%
G04 Gerber Fmt 4.6, Leading zero omitted, Abs format (unit mm)*
G04 Created by KiCad (PCBNEW 5.1.12-84ad8e8a86~92~ubuntu18.04.1) date 2022-01-13 07:13:59*
%MOMM*%
%LPD*%
G01*
G04 APERTURE LIST*
%ADD10C,1.800000*%
%ADD11R,1.600000X1.600000*%
%ADD12C,1.600000*%
%ADD13C,3.800000*%
%ADD14O,1.600000X1.600000*%
G04 APERTURE END LIST*
D10*
%TO.C,S12*%
X109000000Y-143800000D03*
X109000000Y-138200000D03*
%TD*%
%TO.C,S6*%
X147800000Y-60000000D03*
X142200000Y-60000000D03*
%TD*%
%TO.C,S7*%
X147800000Y-75000000D03*
X142200000Y-75000000D03*
%TD*%
%TO.C,S1*%
X64000000Y-36200000D03*
X64000000Y-41800000D03*
%TD*%
%TO.C,S2*%
X79000000Y-36200000D03*
X79000000Y-41800000D03*
%TD*%
%TO.C,S3*%
X94000000Y-36200000D03*
X94000000Y-41800000D03*
%TD*%
%TO.C,S4*%
X109000000Y-36200000D03*
X109000000Y-41800000D03*
%TD*%
%TO.C,S5*%
X124000000Y-36200000D03*
X124000000Y-41800000D03*
%TD*%
%TO.C,S8*%
X147800000Y-90000000D03*
X142200000Y-90000000D03*
%TD*%
%TO.C,S9*%
X147800000Y-105000000D03*
X142200000Y-105000000D03*
%TD*%
%TO.C,S10*%
X147800000Y-120000000D03*
X142200000Y-120000000D03*
%TD*%
%TO.C,S11*%
X124000000Y-143800000D03*
X124000000Y-138200000D03*
%TD*%
%TO.C,S13*%
X94000000Y-143800000D03*
X94000000Y-138200000D03*
%TD*%
%TO.C,S14*%
X79000000Y-143800000D03*
X79000000Y-138200000D03*
%TD*%
%TO.C,S15*%
X64000000Y-143800000D03*
X64000000Y-138200000D03*
%TD*%
%TO.C,S16*%
X40200000Y-119000000D03*
X45800000Y-119000000D03*
%TD*%
%TO.C,S17*%
X40200000Y-104000000D03*
X45800000Y-104000000D03*
%TD*%
%TO.C,S18*%
X40200000Y-89000000D03*
X45800000Y-89000000D03*
%TD*%
%TO.C,S19*%
X40200000Y-74000000D03*
X45800000Y-74000000D03*
%TD*%
%TO.C,S20*%
X40200000Y-59000000D03*
X45800000Y-59000000D03*
%TD*%
D11*
%TO.C,U1*%
X83330000Y-171620000D03*
D12*
X85870000Y-171620000D03*
X88410000Y-171620000D03*
X90950000Y-171620000D03*
X93490000Y-171620000D03*
X96030000Y-171620000D03*
X98570000Y-171620000D03*
X101110000Y-171620000D03*
X103650000Y-171620000D03*
X106190000Y-171620000D03*
X108730000Y-171620000D03*
X111270000Y-171620000D03*
X111270000Y-156380000D03*
X108730000Y-156380000D03*
X106190000Y-156380000D03*
X103650000Y-156380000D03*
X101110000Y-156380000D03*
X98570000Y-156380000D03*
X96030000Y-156380000D03*
X93490000Y-156380000D03*
X90950000Y-156380000D03*
X88410000Y-156380000D03*
X85870000Y-156380000D03*
X83330000Y-156380000D03*
%TD*%
D13*
%TO.C,REF\u002A\u002A*%
X145000000Y-51000000D03*
%TD*%
%TO.C,REF\u002A\u002A*%
X130000000Y-166000000D03*
%TD*%
%TO.C,REF\u002A\u002A*%
X59000000Y-154000000D03*
%TD*%
%TO.C,REF\u002A\u002A*%
X43000000Y-130000000D03*
%TD*%
%TO.C,REF\u002A\u002A*%
X43000000Y-51000000D03*
%TD*%
%TO.C,REF\u002A\u002A*%
X145000000Y-129000000D03*
%TD*%
D14*
%TO.C,R2*%
X122900000Y-165300000D03*
D12*
X122900000Y-170500000D03*
%TD*%
D14*
%TO.C,R1*%
X75600000Y-175400000D03*
D12*
X70400000Y-175400000D03*
%TD*%
D14*
%TO.C,R3*%
X119100000Y-165300000D03*
D12*
X119100000Y-170500000D03*
%TD*%
D14*
%TO.C,R4*%
X115400000Y-165200000D03*
D12*
X115400000Y-170400000D03*
%TD*%
M02*
