%TF.GenerationSoftware,KiCad,Pcbnew,5.1.12-84ad8e8a86~92~ubuntu18.04.1*%
%TF.CreationDate,2022-01-13T07:13:59-05:00*%
%TF.ProjectId,ThisOneHas3Dmodels90mmsqu,54686973-4f6e-4654-9861-7333446d6f64,rev?*%
%TF.SameCoordinates,Original*%
%TF.FileFunction,Copper,L2,Bot*%
%TF.FilePolarity,Positive*%
%FSLAX46Y46*%
G04 Gerber Fmt 4.6, Leading zero omitted, Abs format (unit mm)*
G04 Created by KiCad (PCBNEW 5.1.12-84ad8e8a86~92~ubuntu18.04.1) date 2022-01-13 07:13:59*
%MOMM*%
%LPD*%
G01*
G04 APERTURE LIST*
%TA.AperFunction,NonConductor*%
%ADD10C,0.150000*%
%TD*%
%TA.AperFunction,ComponentPad*%
%ADD11C,1.800000*%
%TD*%
%TA.AperFunction,ComponentPad*%
%ADD12R,1.600000X1.600000*%
%TD*%
%TA.AperFunction,ComponentPad*%
%ADD13C,1.600000*%
%TD*%
%TA.AperFunction,ComponentPad*%
%ADD14C,3.800000*%
%TD*%
%TA.AperFunction,ComponentPad*%
%ADD15O,1.600000X1.600000*%
%TD*%
%TA.AperFunction,ViaPad*%
%ADD16C,0.800000*%
%TD*%
%TA.AperFunction,Conductor*%
%ADD17C,0.250000*%
%TD*%
%TA.AperFunction,Conductor*%
%ADD18C,0.508000*%
%TD*%
G04 APERTURE END LIST*
D10*
X76519047Y-158556666D02*
X76995238Y-158556666D01*
X76995238Y-155336666D01*
X76280952Y-156410000D02*
X76042857Y-158556666D01*
X75804761Y-156410000D02*
X76042857Y-158556666D01*
X76138095Y-159323333D01*
X76185714Y-159476666D01*
X76280952Y-159630000D01*
X75566666Y-156410000D02*
X75185714Y-156410000D01*
X75423809Y-155336666D02*
X75423809Y-158096666D01*
X75376190Y-158403333D01*
X75280952Y-158556666D01*
X75185714Y-158556666D01*
X74995238Y-156410000D02*
X74614285Y-156410000D01*
X74852380Y-155336666D02*
X74852380Y-158096666D01*
X74804761Y-158403333D01*
X74709523Y-158556666D01*
X74614285Y-158556666D01*
X74138095Y-158556666D02*
X74233333Y-158403333D01*
X74280952Y-158096666D01*
X74280952Y-155336666D01*
X73376190Y-158403333D02*
X73471428Y-158556666D01*
X73661904Y-158556666D01*
X73757142Y-158403333D01*
X73804761Y-158096666D01*
X73804761Y-156870000D01*
X73757142Y-156563333D01*
X73661904Y-156410000D01*
X73471428Y-156410000D01*
X73376190Y-156563333D01*
X73328571Y-156870000D01*
X73328571Y-157176666D01*
X73804761Y-157483333D01*
X71566666Y-158556666D02*
X71900000Y-157023333D01*
X72138095Y-158556666D02*
X72138095Y-155336666D01*
X71757142Y-155336666D01*
X71661904Y-155490000D01*
X71614285Y-155643333D01*
X71566666Y-155950000D01*
X71566666Y-156410000D01*
X71614285Y-156716666D01*
X71661904Y-156870000D01*
X71757142Y-157023333D01*
X72138095Y-157023333D01*
X70757142Y-158403333D02*
X70852380Y-158556666D01*
X71042857Y-158556666D01*
X71138095Y-158403333D01*
X71185714Y-158096666D01*
X71185714Y-156870000D01*
X71138095Y-156563333D01*
X71042857Y-156410000D01*
X70852380Y-156410000D01*
X70757142Y-156563333D01*
X70709523Y-156870000D01*
X70709523Y-157176666D01*
X71185714Y-157483333D01*
X70328571Y-158403333D02*
X70233333Y-158556666D01*
X70042857Y-158556666D01*
X69947619Y-158403333D01*
X69900000Y-158096666D01*
X69900000Y-157943333D01*
X69947619Y-157636666D01*
X70042857Y-157483333D01*
X70185714Y-157483333D01*
X70280952Y-157330000D01*
X70328571Y-157023333D01*
X70328571Y-156870000D01*
X70280952Y-156563333D01*
X70185714Y-156410000D01*
X70042857Y-156410000D01*
X69947619Y-156563333D01*
X69090476Y-158403333D02*
X69185714Y-158556666D01*
X69376190Y-158556666D01*
X69471428Y-158403333D01*
X69519047Y-158096666D01*
X69519047Y-156870000D01*
X69471428Y-156563333D01*
X69376190Y-156410000D01*
X69185714Y-156410000D01*
X69090476Y-156563333D01*
X69042857Y-156870000D01*
X69042857Y-157176666D01*
X69519047Y-157483333D01*
X68185714Y-158556666D02*
X68185714Y-156870000D01*
X68233333Y-156563333D01*
X68328571Y-156410000D01*
X68519047Y-156410000D01*
X68614285Y-156563333D01*
X68185714Y-158403333D02*
X68280952Y-158556666D01*
X68519047Y-158556666D01*
X68614285Y-158403333D01*
X68661904Y-158096666D01*
X68661904Y-157790000D01*
X68614285Y-157483333D01*
X68519047Y-157330000D01*
X68280952Y-157330000D01*
X68185714Y-157176666D01*
X67709523Y-158556666D02*
X67709523Y-156410000D01*
X67709523Y-157023333D02*
X67661904Y-156716666D01*
X67614285Y-156563333D01*
X67519047Y-156410000D01*
X67423809Y-156410000D01*
X66661904Y-158403333D02*
X66757142Y-158556666D01*
X66947619Y-158556666D01*
X67042857Y-158403333D01*
X67090476Y-158250000D01*
X67138095Y-157943333D01*
X67138095Y-157023333D01*
X67090476Y-156716666D01*
X67042857Y-156563333D01*
X66947619Y-156410000D01*
X66757142Y-156410000D01*
X66661904Y-156563333D01*
X66233333Y-158556666D02*
X66233333Y-155336666D01*
X65804761Y-158556666D02*
X65804761Y-156870000D01*
X65852380Y-156563333D01*
X65947619Y-156410000D01*
X66090476Y-156410000D01*
X66185714Y-156563333D01*
X66233333Y-156716666D01*
D11*
%TO.P,S12,2*%
%TO.N,Net-(S12-Pad2)*%
X109000000Y-143800000D03*
%TO.P,S12,1*%
%TO.N,Net-(R4-Pad2)*%
X109000000Y-138200000D03*
%TD*%
%TO.P,S6,2*%
%TO.N,Net-(S1-Pad2)*%
X147800000Y-60000000D03*
%TO.P,S6,1*%
%TO.N,Net-(R2-Pad2)*%
X142200000Y-60000000D03*
%TD*%
%TO.P,S7,2*%
%TO.N,Net-(S12-Pad2)*%
X147800000Y-75000000D03*
%TO.P,S7,1*%
%TO.N,Net-(R2-Pad2)*%
X142200000Y-75000000D03*
%TD*%
%TO.P,S1,2*%
%TO.N,Net-(S1-Pad2)*%
X64000000Y-36200000D03*
%TO.P,S1,1*%
%TO.N,Net-(R3-Pad2)*%
X64000000Y-41800000D03*
%TD*%
%TO.P,S2,2*%
%TO.N,Net-(S12-Pad2)*%
X79000000Y-36200000D03*
%TO.P,S2,1*%
%TO.N,Net-(R3-Pad2)*%
X79000000Y-41800000D03*
%TD*%
%TO.P,S3,2*%
%TO.N,Net-(S13-Pad2)*%
X94000000Y-36200000D03*
%TO.P,S3,1*%
%TO.N,Net-(R3-Pad2)*%
X94000000Y-41800000D03*
%TD*%
%TO.P,S4,2*%
%TO.N,Net-(S14-Pad2)*%
X109000000Y-36200000D03*
%TO.P,S4,1*%
%TO.N,Net-(R3-Pad2)*%
X109000000Y-41800000D03*
%TD*%
%TO.P,S5,2*%
%TO.N,Net-(S10-Pad2)*%
X124000000Y-36200000D03*
%TO.P,S5,1*%
%TO.N,Net-(R3-Pad2)*%
X124000000Y-41800000D03*
%TD*%
%TO.P,S8,2*%
%TO.N,Net-(S13-Pad2)*%
X147800000Y-90000000D03*
%TO.P,S8,1*%
%TO.N,Net-(R2-Pad2)*%
X142200000Y-90000000D03*
%TD*%
%TO.P,S9,2*%
%TO.N,Net-(S14-Pad2)*%
X147800000Y-105000000D03*
%TO.P,S9,1*%
%TO.N,Net-(R2-Pad2)*%
X142200000Y-105000000D03*
%TD*%
%TO.P,S10,2*%
%TO.N,Net-(S10-Pad2)*%
X147800000Y-120000000D03*
%TO.P,S10,1*%
%TO.N,Net-(R2-Pad2)*%
X142200000Y-120000000D03*
%TD*%
%TO.P,S11,2*%
%TO.N,Net-(S1-Pad2)*%
X124000000Y-143800000D03*
%TO.P,S11,1*%
%TO.N,Net-(R4-Pad2)*%
X124000000Y-138200000D03*
%TD*%
%TO.P,S13,2*%
%TO.N,Net-(S13-Pad2)*%
X94000000Y-143800000D03*
%TO.P,S13,1*%
%TO.N,Net-(R4-Pad2)*%
X94000000Y-138200000D03*
%TD*%
%TO.P,S14,2*%
%TO.N,Net-(S14-Pad2)*%
X79000000Y-143800000D03*
%TO.P,S14,1*%
%TO.N,Net-(R4-Pad2)*%
X79000000Y-138200000D03*
%TD*%
%TO.P,S15,2*%
%TO.N,Net-(S10-Pad2)*%
X64000000Y-143800000D03*
%TO.P,S15,1*%
%TO.N,Net-(R4-Pad2)*%
X64000000Y-138200000D03*
%TD*%
%TO.P,S16,2*%
%TO.N,Net-(S1-Pad2)*%
X40200000Y-119000000D03*
%TO.P,S16,1*%
%TO.N,Net-(R1-Pad1)*%
X45800000Y-119000000D03*
%TD*%
%TO.P,S17,2*%
%TO.N,Net-(S12-Pad2)*%
X40200000Y-104000000D03*
%TO.P,S17,1*%
%TO.N,Net-(R1-Pad1)*%
X45800000Y-104000000D03*
%TD*%
%TO.P,S18,2*%
%TO.N,Net-(S13-Pad2)*%
X40200000Y-89000000D03*
%TO.P,S18,1*%
%TO.N,Net-(R1-Pad1)*%
X45800000Y-89000000D03*
%TD*%
%TO.P,S19,2*%
%TO.N,Net-(S14-Pad2)*%
X40200000Y-74000000D03*
%TO.P,S19,1*%
%TO.N,Net-(R1-Pad1)*%
X45800000Y-74000000D03*
%TD*%
%TO.P,S20,2*%
%TO.N,Net-(S10-Pad2)*%
X40200000Y-59000000D03*
%TO.P,S20,1*%
%TO.N,Net-(R1-Pad1)*%
X45800000Y-59000000D03*
%TD*%
D12*
%TO.P,U1,1*%
%TO.N,Net-(U1-Pad1)*%
X83330000Y-171620000D03*
D13*
%TO.P,U1,2*%
%TO.N,Net-(U1-Pad2)*%
X85870000Y-171620000D03*
%TO.P,U1,3*%
%TO.N,Net-(U1-Pad3)*%
X88410000Y-171620000D03*
%TO.P,U1,4*%
%TO.N,Net-(U1-Pad4)*%
X90950000Y-171620000D03*
%TO.P,U1,5*%
%TO.N,Net-(U1-Pad5)*%
X93490000Y-171620000D03*
%TO.P,U1,6*%
%TO.N,Net-(U1-Pad6)*%
X96030000Y-171620000D03*
%TO.P,U1,7*%
%TO.N,Net-(U1-Pad7)*%
X98570000Y-171620000D03*
%TO.P,U1,8*%
%TO.N,Net-(U1-Pad8)*%
X101110000Y-171620000D03*
%TO.P,U1,9*%
%TO.N,Net-(R1-Pad2)*%
X103650000Y-171620000D03*
%TO.P,U1,10*%
%TO.N,Net-(R2-Pad1)*%
X106190000Y-171620000D03*
%TO.P,U1,11*%
%TO.N,Net-(R3-Pad1)*%
X108730000Y-171620000D03*
%TO.P,U1,12*%
%TO.N,Net-(R4-Pad1)*%
X111270000Y-171620000D03*
%TO.P,U1,13*%
%TO.N,Net-(S10-Pad2)*%
X111270000Y-156380000D03*
%TO.P,U1,14*%
%TO.N,Net-(S14-Pad2)*%
X108730000Y-156380000D03*
%TO.P,U1,15*%
%TO.N,Net-(S13-Pad2)*%
X106190000Y-156380000D03*
%TO.P,U1,16*%
%TO.N,Net-(S12-Pad2)*%
X103650000Y-156380000D03*
%TO.P,U1,17*%
%TO.N,Net-(S1-Pad2)*%
X101110000Y-156380000D03*
%TO.P,U1,18*%
%TO.N,Net-(U1-Pad18)*%
X98570000Y-156380000D03*
%TO.P,U1,19*%
%TO.N,Net-(U1-Pad19)*%
X96030000Y-156380000D03*
%TO.P,U1,20*%
%TO.N,Net-(U1-Pad20)*%
X93490000Y-156380000D03*
%TO.P,U1,21*%
%TO.N,Net-(U1-Pad21)*%
X90950000Y-156380000D03*
%TO.P,U1,22*%
%TO.N,Net-(U1-Pad22)*%
X88410000Y-156380000D03*
%TO.P,U1,23*%
%TO.N,Net-(U1-Pad23)*%
X85870000Y-156380000D03*
%TO.P,U1,24*%
%TO.N,Net-(U1-Pad24)*%
X83330000Y-156380000D03*
%TD*%
D14*
%TO.P,REF\u002A\u002A,*%
%TO.N,*%
X145000000Y-51000000D03*
%TD*%
%TO.P,REF\u002A\u002A,*%
%TO.N,*%
X130000000Y-166000000D03*
%TD*%
%TO.P,REF\u002A\u002A,*%
%TO.N,*%
X59000000Y-154000000D03*
%TD*%
%TO.P,REF\u002A\u002A,*%
%TO.N,*%
X43000000Y-130000000D03*
%TD*%
%TO.P,REF\u002A\u002A,*%
%TO.N,*%
X43000000Y-51000000D03*
%TD*%
%TO.P,REF\u002A\u002A,*%
%TO.N,*%
X145000000Y-129000000D03*
%TD*%
D15*
%TO.P,R2,2*%
%TO.N,Net-(R2-Pad2)*%
X122900000Y-165300000D03*
D13*
%TO.P,R2,1*%
%TO.N,Net-(R2-Pad1)*%
X122900000Y-170500000D03*
%TD*%
D15*
%TO.P,R1,2*%
%TO.N,Net-(R1-Pad2)*%
X75600000Y-175400000D03*
D13*
%TO.P,R1,1*%
%TO.N,Net-(R1-Pad1)*%
X70400000Y-175400000D03*
%TD*%
D15*
%TO.P,R3,2*%
%TO.N,Net-(R3-Pad2)*%
X119100000Y-165300000D03*
D13*
%TO.P,R3,1*%
%TO.N,Net-(R3-Pad1)*%
X119100000Y-170500000D03*
%TD*%
D15*
%TO.P,R4,2*%
%TO.N,Net-(R4-Pad2)*%
X115400000Y-165200000D03*
D13*
%TO.P,R4,1*%
%TO.N,Net-(R4-Pad1)*%
X115400000Y-170400000D03*
%TD*%
D16*
%TO.N,Net-(S12-Pad2)*%
X109000000Y-148000000D03*
X37475000Y-104000000D03*
X79000000Y-33100000D03*
X150600000Y-75000000D03*
%TO.N,Net-(S13-Pad2)*%
X36600000Y-89000000D03*
X94000000Y-32300000D03*
X151500000Y-90000000D03*
%TO.N,Net-(S14-Pad2)*%
X152400000Y-105000000D03*
X35800000Y-74000000D03*
X109024992Y-31475000D03*
X78999992Y-148000000D03*
%TO.N,Net-(S10-Pad2)*%
X153299999Y-120000001D03*
X124000000Y-30700000D03*
X34900000Y-59000000D03*
X64000000Y-149400000D03*
%TD*%
D17*
%TO.N,Net-(D1-Pad2)*%
X149699998Y-64100000D02*
X149700000Y-64100002D01*
%TO.N,Net-(R1-Pad2)*%
X75600000Y-175400000D02*
X103600000Y-175400000D01*
X103650000Y-175350000D02*
X103650000Y-171620000D01*
X103600000Y-175400000D02*
X103650000Y-175350000D01*
%TO.N,Net-(R1-Pad1)*%
X45800000Y-59000000D02*
X45800000Y-119000000D01*
X46900000Y-126200000D02*
X46900000Y-151900000D01*
X46900000Y-151900000D02*
X70400000Y-175400000D01*
X45800000Y-119000000D02*
X45800000Y-125100000D01*
X45800000Y-125100000D02*
X46900000Y-126200000D01*
%TO.N,Net-(R2-Pad1)*%
X106190000Y-171620000D02*
X106190000Y-176710000D01*
X123000000Y-170500000D02*
X123000000Y-176600000D01*
X122900000Y-176700000D02*
X120700000Y-176700000D01*
X123000000Y-176600000D02*
X122900000Y-176700000D01*
X106200000Y-176700000D02*
X120700000Y-176700000D01*
X120700000Y-176700000D02*
X121400000Y-176700000D01*
%TO.N,Net-(R2-Pad2)*%
X141800000Y-120400000D02*
X142200000Y-120000000D01*
X142200000Y-60000000D02*
X142200000Y-75000000D01*
X142200000Y-75000000D02*
X142200000Y-120000000D01*
X141000000Y-147200000D02*
X122900000Y-165300000D01*
X141000000Y-127100000D02*
X141000000Y-147200000D01*
X142200000Y-120000000D02*
X142200000Y-125900000D01*
X142200000Y-125900000D02*
X141000000Y-127100000D01*
%TO.N,Net-(R3-Pad2)*%
X124000000Y-43200000D02*
X124000000Y-41800000D01*
X64000000Y-41800000D02*
X124000000Y-41800000D01*
X140000000Y-43500000D02*
X140000000Y-144400000D01*
X124000000Y-41800000D02*
X138300000Y-41800000D01*
X140000000Y-144400000D02*
X119100000Y-165300000D01*
X138300000Y-41800000D02*
X140000000Y-43500000D01*
%TO.N,Net-(R3-Pad1)*%
X108730000Y-174270000D02*
X115330000Y-174270000D01*
X119100000Y-174270000D02*
X115330000Y-174270000D01*
X108730000Y-171620000D02*
X108730000Y-174200000D01*
X119100000Y-171300000D02*
X119100000Y-174200000D01*
X119600000Y-170800000D02*
X119100000Y-171300000D01*
%TO.N,Net-(R4-Pad1)*%
X115400000Y-171700000D02*
X115400000Y-170400000D01*
X111270000Y-171700000D02*
X115400000Y-171700000D01*
%TO.N,Net-(R4-Pad2)*%
X109000000Y-138200000D02*
X94000000Y-138200000D01*
X94000000Y-138200000D02*
X79000000Y-138200000D01*
X79000000Y-138200000D02*
X64000000Y-138200000D01*
X115400000Y-138400000D02*
X115600000Y-138200000D01*
X115400000Y-165200000D02*
X115400000Y-138400000D01*
X124000000Y-138200000D02*
X115600000Y-138200000D01*
X115600000Y-138200000D02*
X109000000Y-138200000D01*
%TO.N,Net-(S12-Pad2)*%
X109000000Y-143800000D02*
X109000000Y-148000000D01*
X37475000Y-104000000D02*
X40200000Y-104000000D01*
X79000000Y-36200000D02*
X79000000Y-33100000D01*
X147800000Y-75000000D02*
X150600000Y-75000000D01*
%TO.N,Net-(S13-Pad2)*%
X40200000Y-89000000D02*
X36600000Y-89000000D01*
X94000000Y-36200000D02*
X94000000Y-32300000D01*
X147800000Y-90000000D02*
X151500000Y-90000000D01*
%TO.N,Net-(S14-Pad2)*%
X147300000Y-105000000D02*
X152400000Y-105000000D01*
X40200000Y-74000000D02*
X35800000Y-74000000D01*
X109000000Y-36200000D02*
X109000000Y-31499992D01*
X109000000Y-31499992D02*
X109024992Y-31475000D01*
X79000000Y-147999992D02*
X78999992Y-148000000D01*
X79000000Y-143800000D02*
X79000000Y-147999992D01*
D18*
%TO.N,Net-(S10-Pad2)*%
X149214214Y-120000001D02*
X153299999Y-120000001D01*
X147800000Y-120000000D02*
X149214214Y-120000001D01*
X124000000Y-36200000D02*
X124000000Y-30700000D01*
D17*
X40200000Y-59000000D02*
X34900000Y-59000000D01*
X64000000Y-143800000D02*
X64000000Y-149000000D01*
X64000000Y-149000000D02*
X64000000Y-149400000D01*
%TD*%
M02*
