%TF.GenerationSoftware,KiCad,Pcbnew,5.1.10-88a1d61d58~88~ubuntu18.04.1*%
%TF.CreationDate,2021-10-19T13:41:10-04:00*%
%TF.ProjectId,MFDkeyboard2withMountHoles3USEthisONE,4d46446b-6579-4626-9f61-726432776974,rev?*%
%TF.SameCoordinates,Original*%
%TF.FileFunction,Copper,L1,Top*%
%TF.FilePolarity,Positive*%
%FSLAX46Y46*%
G04 Gerber Fmt 4.6, Leading zero omitted, Abs format (unit mm)*
G04 Created by KiCad (PCBNEW 5.1.10-88a1d61d58~88~ubuntu18.04.1) date 2021-10-19 13:41:10*
%MOMM*%
%LPD*%
G01*
G04 APERTURE LIST*
%TA.AperFunction,NonConductor*%
%ADD10C,0.150000*%
%TD*%
%TA.AperFunction,ComponentPad*%
%ADD11C,1.800000*%
%TD*%
%TA.AperFunction,ComponentPad*%
%ADD12R,1.600000X1.600000*%
%TD*%
%TA.AperFunction,ComponentPad*%
%ADD13C,1.600000*%
%TD*%
%TA.AperFunction,ComponentPad*%
%ADD14C,3.800000*%
%TD*%
%TA.AperFunction,ComponentPad*%
%ADD15O,1.600000X1.600000*%
%TD*%
%TA.AperFunction,ViaPad*%
%ADD16C,0.800000*%
%TD*%
%TA.AperFunction,Conductor*%
%ADD17C,0.250000*%
%TD*%
%TA.AperFunction,Conductor*%
%ADD18C,0.508000*%
%TD*%
G04 APERTURE END LIST*
D10*
X132880952Y-142556666D02*
X132404761Y-142556666D01*
X132404761Y-139336666D01*
X133119047Y-140410000D02*
X133357142Y-142556666D01*
X133595238Y-140410000D02*
X133357142Y-142556666D01*
X133261904Y-143323333D01*
X133214285Y-143476666D01*
X133119047Y-143630000D01*
X133833333Y-140410000D02*
X134214285Y-140410000D01*
X133976190Y-139336666D02*
X133976190Y-142096666D01*
X134023809Y-142403333D01*
X134119047Y-142556666D01*
X134214285Y-142556666D01*
X134404761Y-140410000D02*
X134785714Y-140410000D01*
X134547619Y-139336666D02*
X134547619Y-142096666D01*
X134595238Y-142403333D01*
X134690476Y-142556666D01*
X134785714Y-142556666D01*
X135261904Y-142556666D02*
X135166666Y-142403333D01*
X135119047Y-142096666D01*
X135119047Y-139336666D01*
X136023809Y-142403333D02*
X135928571Y-142556666D01*
X135738095Y-142556666D01*
X135642857Y-142403333D01*
X135595238Y-142096666D01*
X135595238Y-140870000D01*
X135642857Y-140563333D01*
X135738095Y-140410000D01*
X135928571Y-140410000D01*
X136023809Y-140563333D01*
X136071428Y-140870000D01*
X136071428Y-141176666D01*
X135595238Y-141483333D01*
X137833333Y-142556666D02*
X137500000Y-141023333D01*
X137261904Y-142556666D02*
X137261904Y-139336666D01*
X137642857Y-139336666D01*
X137738095Y-139490000D01*
X137785714Y-139643333D01*
X137833333Y-139950000D01*
X137833333Y-140410000D01*
X137785714Y-140716666D01*
X137738095Y-140870000D01*
X137642857Y-141023333D01*
X137261904Y-141023333D01*
X138642857Y-142403333D02*
X138547619Y-142556666D01*
X138357142Y-142556666D01*
X138261904Y-142403333D01*
X138214285Y-142096666D01*
X138214285Y-140870000D01*
X138261904Y-140563333D01*
X138357142Y-140410000D01*
X138547619Y-140410000D01*
X138642857Y-140563333D01*
X138690476Y-140870000D01*
X138690476Y-141176666D01*
X138214285Y-141483333D01*
X139071428Y-142403333D02*
X139166666Y-142556666D01*
X139357142Y-142556666D01*
X139452380Y-142403333D01*
X139500000Y-142096666D01*
X139500000Y-141943333D01*
X139452380Y-141636666D01*
X139357142Y-141483333D01*
X139214285Y-141483333D01*
X139119047Y-141330000D01*
X139071428Y-141023333D01*
X139071428Y-140870000D01*
X139119047Y-140563333D01*
X139214285Y-140410000D01*
X139357142Y-140410000D01*
X139452380Y-140563333D01*
X140309523Y-142403333D02*
X140214285Y-142556666D01*
X140023809Y-142556666D01*
X139928571Y-142403333D01*
X139880952Y-142096666D01*
X139880952Y-140870000D01*
X139928571Y-140563333D01*
X140023809Y-140410000D01*
X140214285Y-140410000D01*
X140309523Y-140563333D01*
X140357142Y-140870000D01*
X140357142Y-141176666D01*
X139880952Y-141483333D01*
X141214285Y-142556666D02*
X141214285Y-140870000D01*
X141166666Y-140563333D01*
X141071428Y-140410000D01*
X140880952Y-140410000D01*
X140785714Y-140563333D01*
X141214285Y-142403333D02*
X141119047Y-142556666D01*
X140880952Y-142556666D01*
X140785714Y-142403333D01*
X140738095Y-142096666D01*
X140738095Y-141790000D01*
X140785714Y-141483333D01*
X140880952Y-141330000D01*
X141119047Y-141330000D01*
X141214285Y-141176666D01*
X141690476Y-142556666D02*
X141690476Y-140410000D01*
X141690476Y-141023333D02*
X141738095Y-140716666D01*
X141785714Y-140563333D01*
X141880952Y-140410000D01*
X141976190Y-140410000D01*
X142738095Y-142403333D02*
X142642857Y-142556666D01*
X142452380Y-142556666D01*
X142357142Y-142403333D01*
X142309523Y-142250000D01*
X142261904Y-141943333D01*
X142261904Y-141023333D01*
X142309523Y-140716666D01*
X142357142Y-140563333D01*
X142452380Y-140410000D01*
X142642857Y-140410000D01*
X142738095Y-140563333D01*
X143166666Y-142556666D02*
X143166666Y-139336666D01*
X143595238Y-142556666D02*
X143595238Y-140870000D01*
X143547619Y-140563333D01*
X143452380Y-140410000D01*
X143309523Y-140410000D01*
X143214285Y-140563333D01*
X143166666Y-140716666D01*
D11*
%TO.P,S12,2*%
%TO.N,Net-(S12-Pad2)*%
X109000000Y-143800000D03*
%TO.P,S12,1*%
%TO.N,Net-(R4-Pad2)*%
X109000000Y-138200000D03*
%TD*%
%TO.P,S6,2*%
%TO.N,Net-(S1-Pad2)*%
X147800000Y-60000000D03*
%TO.P,S6,1*%
%TO.N,Net-(R2-Pad2)*%
X142200000Y-60000000D03*
%TD*%
%TO.P,S7,2*%
%TO.N,Net-(S12-Pad2)*%
X147800000Y-75000000D03*
%TO.P,S7,1*%
%TO.N,Net-(R2-Pad2)*%
X142200000Y-75000000D03*
%TD*%
%TO.P,S1,2*%
%TO.N,Net-(S1-Pad2)*%
X64000000Y-36200000D03*
%TO.P,S1,1*%
%TO.N,Net-(R3-Pad2)*%
X64000000Y-41800000D03*
%TD*%
%TO.P,S2,2*%
%TO.N,Net-(S12-Pad2)*%
X79000000Y-36200000D03*
%TO.P,S2,1*%
%TO.N,Net-(R3-Pad2)*%
X79000000Y-41800000D03*
%TD*%
%TO.P,S3,2*%
%TO.N,Net-(S13-Pad2)*%
X94000000Y-36200000D03*
%TO.P,S3,1*%
%TO.N,Net-(R3-Pad2)*%
X94000000Y-41800000D03*
%TD*%
%TO.P,S4,2*%
%TO.N,Net-(S14-Pad2)*%
X109000000Y-36200000D03*
%TO.P,S4,1*%
%TO.N,Net-(R3-Pad2)*%
X109000000Y-41800000D03*
%TD*%
%TO.P,S5,2*%
%TO.N,Net-(S10-Pad2)*%
X124000000Y-36200000D03*
%TO.P,S5,1*%
%TO.N,Net-(R3-Pad2)*%
X124000000Y-41800000D03*
%TD*%
%TO.P,S8,2*%
%TO.N,Net-(S13-Pad2)*%
X147800000Y-90000000D03*
%TO.P,S8,1*%
%TO.N,Net-(R2-Pad2)*%
X142200000Y-90000000D03*
%TD*%
%TO.P,S9,2*%
%TO.N,Net-(S14-Pad2)*%
X147800000Y-105000000D03*
%TO.P,S9,1*%
%TO.N,Net-(R2-Pad2)*%
X142200000Y-105000000D03*
%TD*%
%TO.P,S10,2*%
%TO.N,Net-(S10-Pad2)*%
X147800000Y-120000000D03*
%TO.P,S10,1*%
%TO.N,Net-(R2-Pad2)*%
X142200000Y-120000000D03*
%TD*%
%TO.P,S11,2*%
%TO.N,Net-(S1-Pad2)*%
X124000000Y-143800000D03*
%TO.P,S11,1*%
%TO.N,Net-(R4-Pad2)*%
X124000000Y-138200000D03*
%TD*%
%TO.P,S13,2*%
%TO.N,Net-(S13-Pad2)*%
X94000000Y-143800000D03*
%TO.P,S13,1*%
%TO.N,Net-(R4-Pad2)*%
X94000000Y-138200000D03*
%TD*%
%TO.P,S14,2*%
%TO.N,Net-(S14-Pad2)*%
X79000000Y-143800000D03*
%TO.P,S14,1*%
%TO.N,Net-(R4-Pad2)*%
X79000000Y-138200000D03*
%TD*%
%TO.P,S15,2*%
%TO.N,Net-(S10-Pad2)*%
X64000000Y-143800000D03*
%TO.P,S15,1*%
%TO.N,Net-(R4-Pad2)*%
X64000000Y-138200000D03*
%TD*%
%TO.P,S16,2*%
%TO.N,Net-(S1-Pad2)*%
X40200000Y-119000000D03*
%TO.P,S16,1*%
%TO.N,Net-(R1-Pad1)*%
X45800000Y-119000000D03*
%TD*%
%TO.P,S17,2*%
%TO.N,Net-(S12-Pad2)*%
X40200000Y-104000000D03*
%TO.P,S17,1*%
%TO.N,Net-(R1-Pad1)*%
X45800000Y-104000000D03*
%TD*%
%TO.P,S18,2*%
%TO.N,Net-(S13-Pad2)*%
X40200000Y-89000000D03*
%TO.P,S18,1*%
%TO.N,Net-(R1-Pad1)*%
X45800000Y-89000000D03*
%TD*%
%TO.P,S19,2*%
%TO.N,Net-(S14-Pad2)*%
X40200000Y-74000000D03*
%TO.P,S19,1*%
%TO.N,Net-(R1-Pad1)*%
X45800000Y-74000000D03*
%TD*%
%TO.P,S20,2*%
%TO.N,Net-(S10-Pad2)*%
X40200000Y-59000000D03*
%TO.P,S20,1*%
%TO.N,Net-(R1-Pad1)*%
X45800000Y-59000000D03*
%TD*%
D12*
%TO.P,U1,1*%
%TO.N,Net-(U1-Pad1)*%
X83330000Y-171620000D03*
D13*
%TO.P,U1,2*%
%TO.N,Net-(U1-Pad2)*%
X85870000Y-171620000D03*
%TO.P,U1,3*%
%TO.N,Net-(U1-Pad3)*%
X88410000Y-171620000D03*
%TO.P,U1,4*%
%TO.N,Net-(U1-Pad4)*%
X90950000Y-171620000D03*
%TO.P,U1,5*%
%TO.N,Net-(U1-Pad5)*%
X93490000Y-171620000D03*
%TO.P,U1,6*%
%TO.N,Net-(U1-Pad6)*%
X96030000Y-171620000D03*
%TO.P,U1,7*%
%TO.N,Net-(U1-Pad7)*%
X98570000Y-171620000D03*
%TO.P,U1,8*%
%TO.N,Net-(U1-Pad8)*%
X101110000Y-171620000D03*
%TO.P,U1,9*%
%TO.N,Net-(R1-Pad2)*%
X103650000Y-171620000D03*
%TO.P,U1,10*%
%TO.N,Net-(R2-Pad1)*%
X106190000Y-171620000D03*
%TO.P,U1,11*%
%TO.N,Net-(R3-Pad1)*%
X108730000Y-171620000D03*
%TO.P,U1,12*%
%TO.N,Net-(R4-Pad1)*%
X111270000Y-171620000D03*
%TO.P,U1,13*%
%TO.N,Net-(S10-Pad2)*%
X111270000Y-156380000D03*
%TO.P,U1,14*%
%TO.N,Net-(S14-Pad2)*%
X108730000Y-156380000D03*
%TO.P,U1,15*%
%TO.N,Net-(S13-Pad2)*%
X106190000Y-156380000D03*
%TO.P,U1,16*%
%TO.N,Net-(S12-Pad2)*%
X103650000Y-156380000D03*
%TO.P,U1,17*%
%TO.N,Net-(S1-Pad2)*%
X101110000Y-156380000D03*
%TO.P,U1,18*%
%TO.N,Net-(U1-Pad18)*%
X98570000Y-156380000D03*
%TO.P,U1,19*%
%TO.N,Net-(U1-Pad19)*%
X96030000Y-156380000D03*
%TO.P,U1,20*%
%TO.N,Net-(U1-Pad20)*%
X93490000Y-156380000D03*
%TO.P,U1,21*%
%TO.N,Net-(U1-Pad21)*%
X90950000Y-156380000D03*
%TO.P,U1,22*%
%TO.N,Net-(U1-Pad22)*%
X88410000Y-156380000D03*
%TO.P,U1,23*%
%TO.N,Net-(U1-Pad23)*%
X85870000Y-156380000D03*
%TO.P,U1,24*%
%TO.N,Net-(U1-Pad24)*%
X83330000Y-156380000D03*
%TD*%
D14*
%TO.P,REF\u002A\u002A,*%
%TO.N,*%
X145000000Y-51000000D03*
%TD*%
%TO.P,REF\u002A\u002A,*%
%TO.N,*%
X130000000Y-166000000D03*
%TD*%
%TO.P,REF\u002A\u002A,*%
%TO.N,*%
X59000000Y-154000000D03*
%TD*%
%TO.P,REF\u002A\u002A,*%
%TO.N,*%
X43000000Y-130000000D03*
%TD*%
%TO.P,REF\u002A\u002A,*%
%TO.N,*%
X43000000Y-51000000D03*
%TD*%
%TO.P,REF\u002A\u002A,*%
%TO.N,*%
X145000000Y-129000000D03*
%TD*%
D15*
%TO.P,R2,2*%
%TO.N,Net-(R2-Pad2)*%
X122900000Y-165300000D03*
D13*
%TO.P,R2,1*%
%TO.N,Net-(R2-Pad1)*%
X122900000Y-170500000D03*
%TD*%
D15*
%TO.P,R1,2*%
%TO.N,Net-(R1-Pad2)*%
X75600000Y-175400000D03*
D13*
%TO.P,R1,1*%
%TO.N,Net-(R1-Pad1)*%
X70400000Y-175400000D03*
%TD*%
D15*
%TO.P,R3,2*%
%TO.N,Net-(R3-Pad2)*%
X119100000Y-165300000D03*
D13*
%TO.P,R3,1*%
%TO.N,Net-(R3-Pad1)*%
X119100000Y-170500000D03*
%TD*%
D15*
%TO.P,R4,2*%
%TO.N,Net-(R4-Pad2)*%
X115400000Y-165200000D03*
D13*
%TO.P,R4,1*%
%TO.N,Net-(R4-Pad1)*%
X115400000Y-170400000D03*
%TD*%
D16*
%TO.N,Net-(S12-Pad2)*%
X109000000Y-148000000D03*
X37475000Y-104000000D03*
X79000000Y-33100000D03*
X150600000Y-75000000D03*
%TO.N,Net-(S13-Pad2)*%
X36600000Y-89000000D03*
X94000000Y-32300000D03*
X151500000Y-90000000D03*
%TO.N,Net-(S14-Pad2)*%
X152400000Y-105000000D03*
X35800000Y-74000000D03*
X109024992Y-31475000D03*
X78999992Y-148000000D03*
%TO.N,Net-(S10-Pad2)*%
X153299999Y-120000001D03*
X124000000Y-30700000D03*
X34900000Y-59000000D03*
X64000000Y-149400000D03*
%TD*%
D17*
%TO.N,Net-(S1-Pad2)*%
X101110000Y-156380000D02*
X101110000Y-150610000D01*
X101110000Y-152580000D02*
X101110000Y-150610000D01*
X124100000Y-143900000D02*
X124000000Y-143800000D01*
X124100000Y-146500000D02*
X124100000Y-143900000D01*
D18*
X64000000Y-36200000D02*
X64000000Y-34000000D01*
D17*
X145000000Y-146500000D02*
X124100000Y-146500000D01*
X149700000Y-141800000D02*
X145000000Y-146500000D01*
X147800000Y-60000000D02*
X149600000Y-60000000D01*
X149600000Y-60000000D02*
X149700000Y-60100000D01*
X149700000Y-60100000D02*
X149700000Y-141800000D01*
X51300000Y-33900000D02*
X136500000Y-33900000D01*
X149700000Y-47100000D02*
X149700000Y-60100000D01*
X136500000Y-33900000D02*
X149700000Y-47100000D01*
X38400000Y-46800000D02*
X51300000Y-33900000D01*
X40200000Y-119000000D02*
X38400000Y-119000000D01*
X38400000Y-119000000D02*
X38400000Y-46800000D01*
X120000000Y-146500000D02*
X124100000Y-146500000D01*
X101100000Y-146500000D02*
X120000000Y-146500000D01*
X101110000Y-150610000D02*
X101110000Y-146510000D01*
X101110000Y-146510000D02*
X101100000Y-146500000D01*
%TO.N,Net-(S12-Pad2)*%
X103700000Y-148000000D02*
X103650000Y-148050000D01*
X105900000Y-148000000D02*
X103700000Y-148000000D01*
X104600000Y-148000000D02*
X105900000Y-148000000D01*
X145000000Y-148000000D02*
X150600000Y-142400000D01*
X150599998Y-80100002D02*
X150599998Y-79100002D01*
X150599998Y-79100002D02*
X150600000Y-79100000D01*
X103650000Y-156380000D02*
X103650000Y-152250000D01*
X103650000Y-152580000D02*
X103650000Y-152250000D01*
X103650000Y-152250000D02*
X103650000Y-148050000D01*
X105900000Y-148000000D02*
X109000000Y-148000000D01*
X109000000Y-148000000D02*
X145000000Y-148000000D01*
X150600000Y-79400000D02*
X150600000Y-79100000D01*
X150600000Y-142400000D02*
X150600000Y-79400000D01*
X150600000Y-79400000D02*
X150600000Y-75000000D01*
X137200000Y-33100000D02*
X79000000Y-33100000D01*
X150500000Y-55300000D02*
X150500000Y-46400000D01*
X150600000Y-75000000D02*
X150600000Y-55400000D01*
X150500000Y-46400000D02*
X137200000Y-33100000D01*
X150600000Y-55400000D02*
X150500000Y-55300000D01*
X37500000Y-103975000D02*
X37475000Y-104000000D01*
X37500000Y-46300000D02*
X37500000Y-103975000D01*
X79000000Y-33100000D02*
X50700000Y-33100000D01*
X50700000Y-33100000D02*
X37500000Y-46300000D01*
%TO.N,Net-(S13-Pad2)*%
X92800000Y-32300000D02*
X86600000Y-32300000D01*
X91100000Y-32300000D02*
X86600000Y-32300000D01*
X92800000Y-32300000D02*
X91300000Y-32300000D01*
X106190000Y-156380000D02*
X106190000Y-152290000D01*
X106190000Y-152290000D02*
X106190000Y-152580000D01*
X106190000Y-149410000D02*
X106190000Y-152290000D01*
X145200000Y-149300000D02*
X106300000Y-149300000D01*
X106300000Y-149300000D02*
X106190000Y-149410000D01*
X151500000Y-96499978D02*
X151500000Y-143000000D01*
X151500000Y-143000000D02*
X145200000Y-149300000D01*
X89600000Y-146500000D02*
X94100000Y-146500000D01*
X48200000Y-146500000D02*
X89600000Y-146500000D01*
X94000000Y-32300000D02*
X92800000Y-32300000D01*
X151500000Y-96600000D02*
X151500000Y-90000000D01*
X47700000Y-146500000D02*
X48200000Y-146500000D01*
X36600000Y-89000000D02*
X36600000Y-135400000D01*
X36600000Y-135400000D02*
X47700000Y-146500000D01*
X94100000Y-143900000D02*
X94000000Y-143800000D01*
X94100000Y-146500000D02*
X94100000Y-143900000D01*
X94565685Y-32300000D02*
X94000000Y-32300000D01*
X137900000Y-32300000D02*
X94565685Y-32300000D01*
X151500000Y-90000000D02*
X151500000Y-45900000D01*
X151500000Y-45900000D02*
X137900000Y-32300000D01*
X36600000Y-45800000D02*
X36600000Y-89000000D01*
X86600000Y-32300000D02*
X50100000Y-32300000D01*
X50100000Y-32300000D02*
X36600000Y-45800000D01*
%TO.N,Net-(S14-Pad2)*%
X152400000Y-141600000D02*
X152400000Y-139200000D01*
X152400000Y-139900000D02*
X152400000Y-139200000D01*
X152400000Y-140600000D02*
X152400000Y-141600000D01*
X35800000Y-77000000D02*
X35800000Y-80500000D01*
X35800000Y-77600000D02*
X35800000Y-80500000D01*
X35800000Y-77000000D02*
X35800000Y-77400000D01*
X152400000Y-110200000D02*
X152400000Y-108599998D01*
X152400000Y-107100000D02*
X152400000Y-110200000D01*
X152400000Y-107899998D02*
X152400000Y-107100000D01*
X108730000Y-156380000D02*
X108730000Y-152370000D01*
X108730000Y-152370000D02*
X108730000Y-152580000D01*
X108730000Y-150730000D02*
X108730000Y-152370000D01*
X108860000Y-150600000D02*
X108730000Y-150730000D01*
X145500000Y-150600000D02*
X108860000Y-150600000D01*
X152400000Y-141600000D02*
X152400000Y-143700000D01*
X152400000Y-143700000D02*
X145500000Y-150600000D01*
X152374999Y-119451999D02*
X152400000Y-119426998D01*
X152400000Y-120173002D02*
X152374999Y-120148001D01*
X152400000Y-139200000D02*
X152400000Y-120173002D01*
X152374999Y-120148001D02*
X152374999Y-119451999D01*
X152400000Y-119426998D02*
X152400000Y-110200000D01*
X35800000Y-74000000D02*
X35800000Y-77000000D01*
X74000000Y-148000000D02*
X79000000Y-148000000D01*
X47700000Y-148000000D02*
X74000000Y-148000000D01*
X35800000Y-136100000D02*
X47700000Y-148000000D01*
X35800000Y-80500000D02*
X35800000Y-136100000D01*
X138675000Y-31475000D02*
X109024992Y-31475000D01*
X152400000Y-107100000D02*
X152400000Y-45200000D01*
X152400000Y-45200000D02*
X138675000Y-31475000D01*
X35800000Y-74000000D02*
X35800000Y-45100000D01*
X49425000Y-31475000D02*
X109024992Y-31475000D01*
X35800000Y-45100000D02*
X49425000Y-31475000D01*
%TO.N,Net-(S10-Pad2)*%
X153299999Y-144300001D02*
X153299999Y-120000001D01*
X145800000Y-151800000D02*
X153299999Y-144300001D01*
X111270000Y-156380000D02*
X111270000Y-151800000D01*
X111270000Y-151800000D02*
X145800000Y-151800000D01*
X34900000Y-59000000D02*
X34900000Y-136500000D01*
X47800000Y-149400000D02*
X64000000Y-149400000D01*
X34900000Y-136500000D02*
X47800000Y-149400000D01*
X139400000Y-30700000D02*
X153299999Y-44599999D01*
X153299999Y-44599999D02*
X153299999Y-120000001D01*
X48800000Y-30700000D02*
X139400000Y-30700000D01*
X34900000Y-59000000D02*
X34900000Y-44600000D01*
X34900000Y-44600000D02*
X48800000Y-30700000D01*
%TD*%
M02*
